<svg id="Capa_1" enable-background="new 0 0 426.703 426.703" height="512" viewBox="0 0 426.703 426.703" width="512" xmlns="http://www.w3.org/2000/svg"><g><path d="m83.283 391.833h260.143c4.848 0 8.779 3.93 8.779 8.779 0 4.848-3.93 8.779-8.779 8.779h-260.143c-4.848 0-8.779-3.93-8.779-8.779 0-4.849 3.93-8.779 8.779-8.779z" fill="#eeefee"/><path d="m204.575 289.18h17.557v117.51h-17.557z" fill="#eeefee"/><path d="m196.968 374.52h32.773c5.36 0 9.705 4.345 9.705 9.705v32.773c0 5.36-4.345 9.705-9.705 9.705h-32.773c-5.36 0-9.705-4.345-9.705-9.705v-32.773c0-5.36 4.345-9.705 9.705-9.705z" fill="#575b6d"/><path d="m68.41 204.328h289.887v24.156h-289.887z" fill="#414451"/><path d="m68.41 91.7h289.887v24.156h-289.887z" fill="#414451"/><path d="m30.965 111.926h364.774c5.337 0 9.663 4.326 9.663 9.663v79.721c0 5.337-4.326 9.663-9.663 9.663h-364.774c-5.337 0-9.663-4.326-9.663-9.663v-79.72c-.001-5.337 4.326-9.664 9.663-9.664z" fill="#575b6d"/><g fill="#414451"><path d="m369.975 132.158h10.47v61.398h-10.47z"/><path d="m340.683 132.158h10.47v61.398h-10.47z"/><path d="m311.392 132.158h10.47v61.398h-10.47z"/><path d="m282.1 132.158h10.47v61.398h-10.47z"/><path d="m252.809 132.158h10.47v61.398h-10.47z"/><path d="m223.522 132.158h10.47v61.398h-10.47z"/><path d="m194.231 132.158h10.47v61.398h-10.47z"/></g><circle cx="61.266" cy="162.86" fill="#2cbfae" r="14.393"/><circle cx="112.6" cy="162.86" fill="#ef5261" r="14.393"/><path d="m30.965 0h364.774c5.337 0 9.663 4.326 9.663 9.663v79.721c0 5.337-4.326 9.663-9.663 9.663h-364.774c-5.337 0-9.663-4.326-9.663-9.663v-79.721c-.001-5.337 4.326-9.663 9.663-9.663z" fill="#575b6d"/><path d="m369.975 20.232h10.47v61.398h-10.47z" fill="#414451"/><path d="m340.683 20.232h10.47v61.398h-10.47z" fill="#414451"/><path d="m311.392 20.232h10.47v61.398h-10.47z" fill="#414451"/><path d="m282.1 20.232h10.47v61.398h-10.47z" fill="#414451"/><path d="m252.809 20.232h10.47v61.398h-10.47z" fill="#414451"/><path d="m223.522 20.232h10.47v61.398h-10.47z" fill="#414451"/><path d="m194.231 20.232h10.47v61.398h-10.47z" fill="#414451"/><circle cx="61.266" cy="50.934" fill="#2cbfae" r="14.393"/><circle cx="112.6" cy="50.934" fill="#ef5261" r="14.393"/><path d="m30.965 223.858h364.774c5.337 0 9.663 4.326 9.663 9.663v79.721c0 5.337-4.326 9.663-9.663 9.663h-364.774c-5.337 0-9.663-4.326-9.663-9.663v-79.721c-.001-5.337 4.326-9.663 9.663-9.663z" fill="#575b6d"/><path d="m369.975 244.09h10.47v61.398h-10.47z" fill="#414451"/><path d="m340.683 244.09h10.47v61.398h-10.47z" fill="#414451"/><path d="m311.392 244.09h10.47v61.398h-10.47z" fill="#414451"/><path d="m282.1 244.09h10.47v61.398h-10.47z" fill="#414451"/><path d="m252.809 244.09h10.47v61.398h-10.47z" fill="#414451"/><path d="m223.522 244.09h10.47v61.398h-10.47z" fill="#414451"/><path d="m194.231 244.09h10.47v61.398h-10.47z" fill="#414451"/><circle cx="61.266" cy="274.786" fill="#2cbfae" r="14.393"/><circle cx="112.6" cy="274.786" fill="#ef5261" r="14.393"/></g></svg>